<svg xmlns="http://www.w3.org/2000/svg" width="30" height="32" viewBox="0 0 20 21" shape-rendering="crispEdges">
  <g fill="#070B1A" transform="translate(1,1)">
    <rect x="6" y="0" width="3" height="1"/>
    <rect x="6" y="1" width="3" height="1"/>
    <rect x="6" y="2" width="3" height="1"/>
    <rect x="6" y="3" width="3" height="1"/>
    <rect x="6" y="4" width="3" height="1"/><rect x="10" y="4" width="2" height="1"/>
    <rect x="6" y="5" width="3" height="1"/><rect x="10" y="5" width="2" height="1"/><rect x="13" y="5" width="2" height="1"/>
    <rect x="6" y="6" width="3" height="1"/><rect x="10" y="6" width="2" height="1"/><rect x="13" y="6" width="2" height="1"/><rect x="16" y="6" width="2" height="1"/>
    <rect x="5" y="7" width="14" height="1"/>
    <rect x="4" y="8" width="15" height="1"/>
    <rect x="2" y="9" width="3" height="1"/><rect x="4" y="9" width="15" height="1"/>
    <rect x="2" y="10" width="3" height="1"/><rect x="4" y="10" width="15" height="1"/>
    <rect x="4" y="11" width="15" height="1"/>
    <rect x="4" y="12" width="15" height="1"/>
    <rect x="5" y="13" width="13" height="1"/>
    <rect x="5" y="14" width="13" height="1"/>
    <rect x="6" y="15" width="11" height="1"/>
    <rect x="6" y="16" width="11" height="1"/>
    <rect x="7" y="17" width="9" height="1"/>
    <rect x="7" y="18" width="9" height="1"/>
  </g>
  <g fill="#4FA9FF">
    <rect x="6" y="0" width="3" height="1"/>
    <rect x="6" y="1" width="3" height="1"/>
    <rect x="6" y="2" width="3" height="1"/>
    <rect x="6" y="3" width="3" height="1"/>
    <rect x="6" y="4" width="3" height="1"/><rect x="10" y="4" width="2" height="1"/>
    <rect x="6" y="5" width="3" height="1"/><rect x="10" y="5" width="2" height="1"/><rect x="13" y="5" width="2" height="1"/>
    <rect x="6" y="6" width="3" height="1"/><rect x="10" y="6" width="2" height="1"/><rect x="13" y="6" width="2" height="1"/><rect x="16" y="6" width="2" height="1"/>
    <rect x="5" y="7" width="14" height="1"/>
    <rect x="4" y="8" width="15" height="1"/>
    <rect x="2" y="9" width="3" height="1"/><rect x="4" y="9" width="15" height="1"/>
    <rect x="2" y="10" width="3" height="1"/><rect x="4" y="10" width="15" height="1"/>
    <rect x="4" y="11" width="15" height="1"/>
    <rect x="4" y="12" width="15" height="1"/>
    <rect x="5" y="13" width="13" height="1"/>
    <rect x="5" y="14" width="13" height="1"/>
    <rect x="6" y="15" width="11" height="1"/>
    <rect x="6" y="16" width="11" height="1"/>
    <rect x="7" y="17" width="9" height="1"/>
    <rect x="7" y="18" width="9" height="1"/>
  </g>
</svg>
